<svg width="21" height="21" viewBox="0 0 21 21" fill="none" xmlns="http://www.w3.org/2000/svg">
<path d="M15.536 13.947L17.657 11.825L14.475 8.64299L18.011 5.10799L15.889 2.98599L12.354 6.52199L9.17198 3.33999L7.04998 5.46099L15.536 13.947ZM14.12 15.36L5.63597 6.87599L2.80798 9.70399L11.293 18.189L14.122 15.361L14.12 15.36ZM12.354 3.69399L15.182 0.864991C15.3695 0.67752 15.6238 0.572205 15.889 0.572205C16.1541 0.572205 16.4084 0.67752 16.596 0.864991L20.132 4.40099C20.3194 4.58852 20.4248 4.84283 20.4248 5.10799C20.4248 5.37315 20.3194 5.62746 20.132 5.81499L17.303 8.64299L19.778 11.118C19.9654 11.3055 20.0708 11.5598 20.0708 11.825C20.0708 12.0902 19.9654 12.3445 19.778 12.532L12 20.311C11.8124 20.4985 11.5581 20.6038 11.293 20.6038C11.0278 20.6038 10.7735 20.4985 10.586 20.311L0.685975 10.411C0.498504 10.2235 0.393188 9.96916 0.393188 9.70399C0.393188 9.43883 0.498504 9.18452 0.685975 8.99699L8.46498 1.21899C8.6525 1.03152 8.90681 0.926204 9.17198 0.926204C9.43714 0.926204 9.69145 1.03152 9.87897 1.21899L12.354 3.69399Z" fill="white"/>
</svg>
