<svg width="101" height="101" viewBox="0 0 101 101" fill="none" xmlns="http://www.w3.org/2000/svg">
<path fill-rule="evenodd" clip-rule="evenodd" d="M0.095459 50.0955C0.095459 36.8346 5.3633 24.1169 14.7401 14.7401C24.1169 5.3633 36.8346 0.095459 50.0955 0.095459C63.3563 0.095459 76.074 5.3633 85.4508 14.7401C94.8276 24.1169 100.095 36.8346 100.095 50.0955C100.095 63.3563 94.8276 76.074 85.4508 85.4508C76.074 94.8276 63.3563 100.095 50.0955 100.095C36.8346 100.095 24.1169 94.8276 14.7401 85.4508C5.3633 76.074 0.095459 63.3563 0.095459 50.0955ZM47.2421 71.4955L76.0288 35.5088L70.8288 31.3488L46.2821 62.0221L28.8955 47.5355L24.6288 52.6555L47.2421 71.5021V71.4955Z" fill="#06AF62"/>
</svg>
