<svg width="24" height="24" viewBox="0 0 24 24" fill="none" xmlns="http://www.w3.org/2000/svg">
<path d="M3.998 7.45455V2H18.5L22 5.18182V22H16M17 2V6.54545H22M5.5 16.0909L9 12.9091L12.5 16.0909M9 13.3636V19.2727M9 22C10.8565 22 12.637 21.3295 13.9497 20.1361C15.2625 18.9427 16 17.3241 16 15.6364C16 13.9486 15.2625 12.33 13.9497 11.1366C12.637 9.94318 10.8565 9.27273 9 9.27273C7.14348 9.27273 5.36301 9.94318 4.05025 11.1366C2.7375 12.33 2 13.9486 2 15.6364C2 17.3241 2.7375 18.9427 4.05025 20.1361C5.36301 21.3295 7.14348 22 9 22Z" stroke="white" stroke-width="2.09091"/>
</svg>
