<svg width="24" height="24" viewBox="0 0 24 24" fill="none" xmlns="http://www.w3.org/2000/svg">
<path d="M24 12.1407C24 18.692 18.6919 24 12.1406 24C5.58926 24 0.28125 18.692 0.28125 12.1407C0.28125 5.58934 5.58926 0.281387 12.1406 0.281251C18.6919 0.281251 23.9999 5.58934 24 12.1407ZM12.1406 1.81149C6.46436 1.81149 1.81149 6.4071 1.81149 12.1407C1.81149 17.8169 6.40699 22.4698 12.1406 22.4698C17.8168 22.4698 22.4698 17.8743 22.4698 12.1407C22.4698 6.4645 17.8742 1.81149 12.1406 1.81149ZM13.6708 7.54995L9.08012 12.1407L13.6708 16.7314V7.54995ZM15.2011 16.7314C15.2011 18.0895 13.5513 18.7781 12.5901 17.8121L7.99939 13.2214C7.40164 12.6236 7.40164 11.6529 7.99939 11.0551L12.5901 6.4645C13.5513 5.50324 15.2011 6.18225 15.2011 7.54519V16.7314Z" fill="#C2554F"/>
</svg>
